<svg xmlns="http://www.w3.org/2000/svg" viewBox="0 0 2000 2000" fill="#bea7e5">
<path d="M1680.87557,1455.22238a119.10053,119.10053,0,0,1-119.12443-119.07724v-332.424c0-121.74335-99.08375-220.789-220.87655-220.789s-220.87655,99.0457-220.87655,220.789v332.424a119.12444,119.12444,0,0,1-238.24887,0v-332.424c0-253.06215,205.96176-458.94353,459.12542-458.94353S1800,750.659,1800,1003.72118v332.424A119.10053,119.10053,0,0,1,1680.87557,1455.22238Z"/>
<path d="M964.80121,661.59908A457.35994,457.35994,0,0,0,659.12539,544.77762C405.9617,544.77762,200,750.659,200,1003.72112v332.424a119.12444,119.12444,0,0,0,238.24886,0v-332.424c0-121.74335,99.08374-220.789,220.87653-220.789A220.92486,220.92486,0,0,1,845.91254,886.01364,507.839,507.839,0,0,1,964.80121,661.59908Z"/>
</svg>